<?xml version="1.0" encoding="UTF-8"?><svg id="Layer_2" xmlns="http://www.w3.org/2000/svg" viewBox="0 0 213.74 300"><defs><style>.cls-1{fill:#59c6e7;}</style></defs><g id="Layer_2-2"><circle class="cls-1" cx="146.66" cy="31.81" r="8.63"/><circle class="cls-1" cx="147.75" cy="5.08" r="5.08"/><circle class="cls-1" cx="196.23" cy="180.33" r="5.08"/><circle class="cls-1" cx="73.9" cy="277.69" r="8.75"/><circle class="cls-1" cx="60.18" cy="261.29" r="8.75"/><circle class="cls-1" cx="44.02" cy="205.77" r="11.04"/><circle class="cls-1" cx="69.84" cy="212.71" r="11.04"/><circle class="cls-1" cx="94.61" cy="269.66" r="11.04"/><circle class="cls-1" cx="53.99" cy="99.38" r="11.04"/><circle class="cls-1" cx="103.45" cy="123.8" r="11.04"/><circle class="cls-1" cx="29.98" cy="119.39" r="10.25"/><circle class="cls-1" cx="75.48" cy="135.56" r="10.25"/><circle class="cls-1" cx="52.59" cy="156.98" r="10.25"/><circle class="cls-1" cx="126.35" cy="159.23" r="10.25"/><circle class="cls-1" cx="116.95" cy="39.63" r="8.75"/><circle class="cls-1" cx="109.31" cy="66" r="8.75"/><circle class="cls-1" cx="144.48" cy="116.08" r="8.06"/><circle class="cls-1" cx="122.08" cy="99.38" r="8.24"/><circle class="cls-1" cx="80.19" cy="76.61" r="10.25"/><circle class="cls-1" cx="152.83" cy="60.77" r="11.04"/><circle class="cls-1" cx="176.12" cy="133.28" r="8.75"/><circle class="cls-1" cx="162.52" cy="88.34" r="7.23"/><circle class="cls-1" cx="16.09" cy="140.52" r="7.23"/><circle class="cls-1" cx="44.02" cy="139.78" r="5.08"/><circle class="cls-1" cx="127.16" cy="137.28" r="5.08"/><circle class="cls-1" cx="186.18" cy="197.98" r="5.08"/><circle class="cls-1" cx="165.72" cy="176.92" r="5.08"/><circle class="cls-1" cx="170.81" cy="110.48" r="5.08"/><circle class="cls-1" cx="69.84" cy="294.92" r="5.08"/><circle class="cls-1" cx="82.72" cy="161.12" r="5.08"/><circle class="cls-1" cx="5.08" cy="127.53" r="5.08"/><circle class="cls-1" cx="19.02" cy="159.23" r="7.23"/><circle class="cls-1" cx="82.72" cy="105.09" r="7.23"/><circle class="cls-1" cx="184.01" cy="161.12" r="11.04"/><circle class="cls-1" cx="154.57" cy="228.28" r="11.04"/><circle class="cls-1" cx="44.24" cy="231.97" r="10.25"/><circle class="cls-1" cx="127.16" cy="251.04" r="10.25"/><circle class="cls-1" cx="204.98" cy="202.37" r="8.75"/><circle class="cls-1" cx="167.37" cy="200.02" r="8.75"/><circle class="cls-1" cx="103.96" cy="175.24" r="7.67"/><circle class="cls-1" cx="181.09" cy="220.53" r="8.24"/><circle class="cls-1" cx="130.81" cy="198.66" r="10.25"/><circle class="cls-1" cx="100.96" cy="233.08" r="10.25"/><circle class="cls-1" cx="85.71" cy="187.73" r="10.25"/><circle class="cls-1" cx="103.15" cy="201.67" r="7.45"/><circle class="cls-1" cx="26.25" cy="186.65" r="6.66"/><circle class="cls-1" cx="46.81" cy="176.86" r="8.63"/></g></svg>