<?xml version="1.0" encoding="UTF-8"?><svg id="Layer_2" xmlns="http://www.w3.org/2000/svg" viewBox="0 0 498.6 440.06"><defs><style>.cls-1{fill:#59c6e7;}</style></defs><g id="Layer_2-2"><path class="cls-1" d="M.37,429.71c1.32-4.2,5.79-6.53,9.98-5.21,4.2,1.32,6.53,5.79,5.21,9.98-1.32,4.2-5.79,6.53-9.98,5.21-4.2-1.32-6.53-5.79-5.21-9.98ZM6.71,407.47c3.16,1.59,7.01.33,8.6-2.83,1.59-3.16.33-7.01-2.83-8.6-3.16-1.59-7.01-.33-8.6,2.83-1.59,3.16-.33,7.01,2.83,8.6ZM20.13,386.24c3.16,1.59,7.01.33,8.6-2.83,1.59-3.16.33-7.01-2.83-8.6-3.16-1.59-7.01-.33-8.6,2.83-1.59,3.16-.33,7.01,2.83,8.6ZM12.76,357.73c-4.04-1.75-8.72.11-10.47,4.15-1.75,4.04.11,8.72,4.15,10.47,4.04,1.75,8.72-.11,10.47-4.15,1.75-4.04-.11-8.72-4.15-10.47ZM10.59,379.23c-2.61-1.84-6.22-1.22-8.06,1.39s-1.22,6.22,1.39,8.06c2.61,1.84,6.22,1.22,8.06-1.39,1.84-2.61,1.22-6.22-1.39-8.06ZM28.4,361.96c-2.61-1.84-6.22-1.22-8.06,1.39-1.84,2.61-1.22,6.22,1.39,8.06,2.61,1.84,6.22,1.22,8.06-1.39,1.84-2.61,1.22-6.22-1.39-8.06ZM29.27,390.97c-2.61-1.84-6.22-1.22-8.06,1.39-1.84,2.61-1.22,6.22,1.39,8.06,2.61,1.84,6.22,1.22,8.06-1.39,1.84-2.61,1.22-6.22-1.39-8.06ZM9.74,409.52c-2.61-1.84-6.22-1.22-8.06,1.39-1.84,2.61-1.22,6.22,1.39,8.06,2.61,1.84,6.22,1.22,8.06-1.39,1.84-2.61,1.22-6.22-1.39-8.06ZM31.01,343.37c-2.61-1.84-6.22-1.22-8.06,1.39-1.84,2.61-1.22,6.22,1.39,8.06,2.61,1.84,6.22,1.22,8.06-1.39,1.84-2.61,1.22-6.22-1.39-8.06ZM351.76,170.68c-2.7-3.89-8.04-4.86-11.93-2.16-3.89,2.7-4.86,8.04-2.16,11.93,2.7,3.89,8.04,4.86,11.93,2.16,3.89-2.7,4.86-8.04,2.16-11.93ZM412.63,33.16c-4.28-2.02-9.39-.19-11.41,4.1-2.02,4.28-.19,9.39,4.1,11.41,4.28,2.02,9.39.19,11.41-4.1,2.02-4.28.19-9.39-4.1-11.41ZM323.56,186.45c-2.51-3.61-7.47-4.51-11.08-2.01-3.61,2.51-4.51,7.47-2.01,11.08,2.51,3.61,7.47,4.51,11.08,2.01,3.61-2.51,4.51-7.47,2.01-11.08ZM296.07,195.92c-2.51-3.61-7.47-4.51-11.08-2.01-3.61,2.51-4.51,7.47-2.01,11.08,2.51,3.61,7.47,4.51,11.08,2.01,3.61-2.51,4.51-7.47,2.01-11.08ZM317.2,159.76c-3.98-1.88-8.72-.17-10.6,3.8-1.88,3.98-.17,8.72,3.8,10.6,3.98,1.88,8.72.17,10.6-3.8,1.88-3.98.17-8.72-3.8-10.6ZM341.15,150.16c-2.51-3.61-7.47-4.51-11.08-2.01-3.61,2.51-4.51,7.47-2.01,11.08,2.51,3.61,7.47,4.51,11.08,2.01,3.61-2.51,4.51-7.47,2.01-11.08ZM358.94,132.41c-2.51-3.61-7.47-4.51-11.08-2.01-3.61,2.51-4.51,7.47-2.01,11.08,2.51,3.61,7.47,4.51,11.08,2.01,3.61-2.51,4.51-7.47,2.01-11.08ZM430.73,52.44c2.51,3.61,7.47,4.51,11.08,2.01,3.61-2.51,4.51-7.47,2.01-11.08-2.51-3.61-7.47-4.51-11.08-2.01-3.61,2.51-4.51,7.47-2.01,11.08ZM408.17,106.65c2.51,3.61,7.47,4.51,11.08,2.01,3.61-2.51,4.51-7.47,2.01-11.08-2.51-3.61-7.47-4.51-11.08-2.01-3.61,2.51-4.51,7.47-2.01,11.08ZM389.41,135.64c2.51,3.61,7.47,4.51,11.08,2.01,3.61-2.51,4.51-7.47,2.01-11.08-2.51-3.61-7.47-4.51-11.08-2.01-3.61,2.51-4.51,7.47-2.01,11.08ZM378.48,156.31c2.51,3.61,7.47,4.51,11.08,2.01,3.61-2.51,4.51-7.47,2.01-11.08-2.51-3.61-7.47-4.51-11.08-2.01-3.61,2.51-4.51,7.47-2.01,11.08ZM361.75,155.81c2.24,2.64,6.19,2.96,8.82.72,2.64-2.24,2.96-6.19.72-8.82-2.24-2.64-6.19-2.96-8.82-.72-2.64,2.24-2.96,6.19-.72,8.82ZM362.31,174.96c2.02,2.91,6.01,3.63,8.91,1.61,2.91-2.02,3.63-6.01,1.61-8.91-2.02-2.91-6.01-3.63-8.91-1.61-2.91,2.02-3.63,6.01-1.61,8.91ZM179.64,227.08c-2.03-4.28-7.15-6.1-11.43-4.07-4.28,2.03-6.1,7.15-4.07,11.43,2.03,4.28,7.15,6.1,11.43,4.07,4.28-2.03,6.1-7.15,4.07-11.43ZM189.17,203.26c-3.9,2.69-4.87,8.03-2.18,11.93,2.69,3.9,8.03,4.87,11.93,2.18,3.9-2.69,4.87-8.03,2.18-11.93-2.69-3.9-8.03-4.87-11.93-2.18ZM129.84,231.33c-2.51-3.61-7.47-4.51-11.08-2.01-3.61,2.51-4.51,7.47-2.01,11.08,2.51,3.61,7.47,4.51,11.08,2.01,3.61-2.51,4.51-7.47,2.01-11.08ZM139.77,218.1c-2.51-1.82-6.02-1.27-7.85,1.24-1.82,2.51-1.27,6.02,1.24,7.85,2.51,1.82,6.02,1.27,7.85-1.24s1.27-6.02-1.24-7.85ZM145.46,244.12c-1.76-1.28-4.23-.89-5.52.87-1.28,1.76-.89,4.23.87,5.52,1.76,1.28,4.23.89,5.52-.87,1.28-1.76.89-4.23-.87-5.52ZM155.68,229.07c-1.89-3.97-6.64-5.66-10.61-3.78-3.97,1.89-5.66,6.64-3.78,10.61,1.89,3.97,6.64,5.66,10.61,3.78,3.97-1.89,5.66-6.64,3.78-10.61ZM179.36,200.15c-1.89-3.97-6.64-5.66-10.61-3.78-3.97,1.89-5.66,6.64-3.78,10.61,1.89,3.97,6.64,5.66,10.61,3.78,3.97-1.89,5.66-6.64,3.78-10.61ZM168.66,255.69c1.59,3.34,5.59,4.77,8.93,3.18,3.34-1.59,4.77-5.59,3.18-8.93-1.59-3.34-5.59-4.77-8.93-3.18-3.34,1.59-4.77,5.59-3.18,8.93ZM130.13,263.63c1.59,3.34,5.59,4.77,8.93,3.18,3.34-1.59,4.77-5.59,3.18-8.93-1.59-3.34-5.59-4.77-8.93-3.18-3.34,1.59-4.77,5.59-3.18,8.93ZM110.96,255.67c1.59,3.34,5.59,4.77,8.93,3.18,3.34-1.59,4.77-5.59,3.18-8.93-1.59-3.34-5.59-4.77-8.93-3.18-3.34,1.59-4.77,5.59-3.18,8.93ZM87.9,259.72c1.59,3.34,5.59,4.77,8.93,3.18,3.34-1.59,4.77-5.59,3.18-8.93-1.59-3.34-5.59-4.77-8.93-3.18-3.34,1.59-4.77,5.59-3.18,8.93ZM79.85,285.39c1.59,3.34,5.59,4.77,8.93,3.18,3.34-1.59,4.77-5.59,3.18-8.93-1.59-3.34-5.59-4.77-8.93-3.18-3.34,1.59-4.77,5.59-3.18,8.93ZM68.96,307.9c1.59,3.34,5.59,4.77,8.93,3.18,3.34-1.59,4.77-5.59,3.18-8.93-1.59-3.34-5.59-4.77-8.93-3.18-3.34,1.59-4.77,5.59-3.18,8.93ZM44.74,307.67c1.59,3.34,5.59,4.77,8.93,3.18,3.34-1.59,4.77-5.59,3.18-8.93-1.59-3.34-5.59-4.77-8.93-3.18-3.34,1.59-4.77,5.59-3.18,8.93ZM36.62,321.45c1.59,3.34,5.59,4.77,8.93,3.18s4.77-5.59,3.18-8.93c-1.59-3.34-5.59-4.77-8.93-3.18-3.34,1.59-4.77,5.59-3.18,8.93ZM21.18,320.99c1.59,3.34,5.59,4.77,8.93,3.18,3.34-1.59,4.77-5.59,3.18-8.93-1.59-3.34-5.59-4.77-8.93-3.18-3.34,1.59-4.77,5.59-3.18,8.93ZM190.94,233.92c1.59,3.34,5.59,4.77,8.93,3.18,3.34-1.59,4.77-5.59,3.18-8.93-1.59-3.34-5.59-4.77-8.93-3.18-3.34,1.59-4.77,5.59-3.18,8.93ZM106.47,312.85c2.51,3.61,7.47,4.51,11.08,2.01,3.61-2.51,4.51-7.47,2.01-11.08-2.51-3.61-7.47-4.51-11.08-2.01-3.61,2.51-4.51,7.47-2.01,11.08ZM101.03,301.23c1.76,1.28,4.23.89,5.52-.87,1.28-1.76.89-4.23-.87-5.52-1.76-1.28-4.23-.89-5.52.87-1.28,1.76-.89,4.23.87,5.52ZM90.75,322.6c1.89,3.97,6.64,5.66,10.61,3.78,3.97-1.89,5.66-6.64,3.78-10.61-1.89-3.97-6.64-5.66-10.61-3.78-3.97,1.89-5.66,6.64-3.78,10.61ZM68.93,326.68c2.51,3.61,7.47,4.51,11.08,2.01,3.61-2.51,4.51-7.47,2.01-11.08-2.51-3.61-7.47-4.51-11.08-2.01-3.61,2.51-4.51,7.47-2.01,11.08ZM67.86,342.81c2.51,1.82,6.02,1.27,7.85-1.24,1.82-2.51,1.27-6.02-1.24-7.85-2.51-1.82-6.02-1.27-7.85,1.24-1.82,2.51-1.27,6.02,1.24,7.85ZM53.09,342.73c1.76,1.28,4.23.89,5.52-.87,1.28-1.76.89-4.23-.87-5.52-1.76-1.28-4.23-.89-5.52.87-1.28,1.76-.89,4.23.87,5.52ZM81.02,344.4c1.76,1.28,4.23.89,5.52-.87,1.28-1.76.89-4.23-.87-5.52-1.76-1.28-4.23-.89-5.52.87-1.28,1.76-.89,4.23.87,5.52ZM106.57,229.18c1.76,1.28,4.23.89,5.52-.87,1.28-1.76.89-4.23-.87-5.52s-4.23-.89-5.52.87c-1.28,1.76-.89,4.23.87,5.52ZM119.52,219.28c1.76,1.28,4.23.89,5.52-.87s.89-4.23-.87-5.52c-1.76-1.28-4.23-.89-5.52.87-1.28,1.76-.89,4.23.87,5.52ZM105.3,206.96c1.76,1.28,4.23.89,5.52-.87,1.28-1.76.89-4.23-.87-5.52-1.76-1.28-4.23-.89-5.52.87-1.28,1.76-.89,4.23.87,5.52ZM72.15,293.64c1.76,1.28,4.23.89,5.52-.87,1.28-1.76.89-4.23-.87-5.52-1.76-1.28-4.23-.89-5.52.87-1.28,1.76-.89,4.23.87,5.52ZM82.98,314.78c1.76,1.28,4.23.89,5.52-.87,1.28-1.76.89-4.23-.87-5.52-1.76-1.28-4.23-.89-5.52.87-1.28,1.76-.89,4.23.87,5.52ZM122.83,302.38c1.76,1.28,4.23.89,5.52-.87,1.28-1.76.89-4.23-.87-5.52-1.76-1.28-4.23-.89-5.52.87-1.28,1.76-.89,4.23.87,5.52ZM132.72,303.6c1.76,1.28,4.23.89,5.52-.87,1.28-1.76.89-4.23-.87-5.52-1.76-1.28-4.23-.89-5.52.87-1.28,1.76-.89,4.23.87,5.52ZM134.5,291.03c1.76,1.28,4.23.89,5.52-.87,1.28-1.76.89-4.23-.87-5.52-1.76-1.28-4.23-.89-5.52.87-1.28,1.76-.89,4.23.87,5.52ZM443.72,7.14c1.76,1.28,4.23.89,5.52-.87,1.28-1.76.89-4.23-.87-5.52-1.76-1.28-4.23-.89-5.52.87-1.28,1.76-.89,4.23.87,5.52ZM154.09,257.81c1.76,1.28,4.23.89,5.52-.87,1.28-1.76.89-4.23-.87-5.52-1.76-1.28-4.23-.89-5.52.87-1.28,1.76-.89,4.23.87,5.52ZM166.41,266.56c1.76,1.28,4.23.89,5.52-.87,1.28-1.76.89-4.23-.87-5.52-1.76-1.28-4.23-.89-5.52.87-1.28,1.76-.89,4.23.87,5.52ZM69.38,280.46c1.76,1.28,4.23.89,5.52-.87,1.28-1.76.89-4.23-.87-5.52s-4.23-.89-5.52.87c-1.28,1.76-.89,4.23.87,5.52ZM40.41,297.17c1.76,1.28,4.23.89,5.52-.87,1.28-1.76.89-4.23-.87-5.52-1.76-1.28-4.23-.89-5.52.87-1.28,1.76-.89,4.23.87,5.52ZM87.8,332.93c1.76,1.28,4.23.89,5.52-.87,1.28-1.76.89-4.23-.87-5.52-1.76-1.28-4.23-.89-5.52.87-1.28,1.76-.89,4.23.87,5.52ZM53.17,331.3c1.89,3.97,6.64,5.66,10.61,3.78,3.97-1.89,5.66-6.64,3.78-10.61-1.89-3.97-6.64-5.66-10.61-3.78-3.97,1.89-5.66,6.64-3.78,10.61ZM114.86,295.67c2.51,1.82,6.02,1.27,7.85-1.24,1.82-2.51,1.27-6.02-1.24-7.85-2.51-1.82-6.02-1.27-7.85,1.24-1.82,2.51-1.27,6.02,1.24,7.85ZM109.17,269.65c1.76,1.28,4.23.89,5.52-.87,1.28-1.76.89-4.23-.87-5.52-1.76-1.28-4.23-.89-5.52.87-1.28,1.76-.89,4.23.87,5.52ZM133.93,280.27c1.76,1.28,4.23.89,5.52-.87,1.28-1.76.89-4.23-.87-5.52-1.76-1.28-4.23-.89-5.52.87-1.28,1.76-.89,4.23.87,5.52ZM100.17,284.16c1.89,3.97,6.64,5.66,10.61,3.78,3.97-1.89,5.66-6.64,3.78-10.61-1.89-3.97-6.64-5.66-10.61-3.78-3.97,1.89-5.66,6.64-3.78,10.61ZM12.41,338.75c2.51,3.61,7.47,4.51,11.08,2.01,3.61-2.51,4.51-7.47,2.01-11.08-2.51-3.61-7.47-4.51-11.08-2.01-3.61,2.51-4.51,7.47-2.01,11.08ZM11.33,354.88c2.51,1.82,6.02,1.27,7.85-1.24,1.82-2.51,1.27-6.02-1.24-7.85-2.51-1.82-6.02-1.27-7.85,1.24-1.82,2.51-1.27,6.02,1.24,7.85ZM5.64,328.87c1.76,1.28,4.23.89,5.52-.87,1.28-1.76.89-4.23-.87-5.52-1.76-1.28-4.23-.89-5.52.87-1.28,1.76-.89,4.23.87,5.52ZM30.4,339.49c1.76,1.28,4.23.89,5.52-.87,1.28-1.76.89-4.23-.87-5.52-1.76-1.28-4.23-.89-5.52.87-1.28,1.76-.89,4.23.87,5.52ZM1.7,340.45c1.76,1.28,4.23.89,5.52-.87,1.28-1.76.89-4.23-.87-5.52-1.76-1.28-4.23-.89-5.52.87-1.28,1.76-.89,4.23.87,5.52ZM200.38,241.53c-2.18,2.21-2.16,5.76.05,7.94,2.21,2.18,5.76,2.16,7.94-.05,2.18-2.21,2.16-5.76-.05-7.94-2.21-2.18-5.76-2.16-7.94.05ZM185.15,243.02c-1.53,1.55-1.52,4.05.04,5.58,1.55,1.53,4.05,1.52,5.58-.04,1.53-1.55,1.52-4.05-.04-5.58-1.55-1.53-4.05-1.52-5.58.04ZM274.85,129.52c-1.53,1.55-1.52,4.05.04,5.58,1.55,1.53,4.05,1.52,5.58-.04,1.53-1.55,1.52-4.05-.04-5.58-1.55-1.53-4.05-1.52-5.58.04ZM142.12,208.65c-1.53,1.55-1.52,4.05.04,5.58,1.55,1.53,4.05,1.52,5.58-.04,1.53-1.55,1.52-4.05-.04-5.58-1.55-1.53-4.05-1.52-5.58.04ZM169.93,159.01c-1.53,1.55-1.52,4.05.04,5.58,1.55,1.53,4.05,1.52,5.58-.04,1.53-1.55,1.52-4.05-.04-5.58-1.55-1.53-4.05-1.52-5.58.04ZM213.97,228.74c-4.21,1.27-6.6,5.71-5.33,9.92,1.27,4.21,5.71,6.6,9.92,5.33,4.21-1.27,6.6-5.71,5.33-9.92-1.27-4.21-5.71-6.6-9.92-5.33ZM232.43,221.34c-2.18,2.21-2.16,5.76.05,7.94,2.21,2.18,5.76,2.16,7.94-.05,2.18-2.21,2.16-5.76-.05-7.94-2.21-2.18-5.76-2.16-7.94.05ZM259.01,219.63c-1.53,1.55-1.52,4.05.04,5.58,1.55,1.53,4.05,1.52,5.58-.04,1.53-1.55,1.52-4.05-.04-5.58-1.55-1.53-4.05-1.52-5.58.04ZM246.02,208.55c-4.21,1.27-6.6,5.71-5.33,9.92,1.27,4.21,5.71,6.6,9.92,5.33,4.21-1.27,6.6-5.71,5.33-9.92-1.27-4.21-5.71-6.6-9.92-5.33ZM156.57,274.94c-1.59-3.34-5.59-4.77-8.93-3.18-3.34,1.59-4.77,5.59-3.18,8.93,1.59,3.34,5.59,4.77,8.93,3.18,3.34-1.59,4.77-5.59,3.18-8.93ZM63.07,350.6c-2.51-1.82-6.03-1.27-7.85,1.25-1.82,2.51-1.27,6.03,1.25,7.85,2.51,1.82,6.03,1.27,7.85-1.25,1.82-2.51,1.27-6.03-1.25-7.85ZM76.24,349.02c-2.51-1.82-6.03-1.27-7.85,1.25-1.82,2.51-1.27,6.03,1.25,7.85,2.51,1.82,6.03,1.27,7.85-1.25,1.82-2.51,1.27-6.03-1.25-7.85ZM46.94,382.31c-2.03-4.28-7.15-6.1-11.43-4.07-4.28,2.03-6.1,7.15-4.07,11.43,2.03,4.28,7.15,6.1,11.43,4.07,4.28-2.03,6.1-7.15,4.07-11.43ZM58.34,364.38c-2.44-4.06-7.71-5.38-11.77-2.94-4.06,2.44-5.38,7.71-2.94,11.77,2.44,4.06,7.71,5.38,11.77,2.94,4.06-2.44,5.38-7.71,2.94-11.77ZM52.24,345.61c-1.89-3.97-6.64-5.66-10.61-3.78-3.97,1.89-5.66,6.64-3.78,10.61,1.89,3.97,6.64,5.66,10.61,3.78,3.97-1.89,5.66-6.64,3.78-10.61ZM16.64,286.94c-2.7-3.89-8.04-4.86-11.93-2.16-3.89,2.7-4.86,8.04-2.16,11.93,2.7,3.89,8.04,4.86,11.93,2.16,3.89-2.7,4.86-8.04,2.16-11.93ZM84.42,236.05c2.14,3.08,6.37,3.85,9.46,1.71,3.08-2.14,3.85-6.37,1.71-9.46-2.14-3.08-6.37-3.85-9.46-1.71-3.08,2.14-3.85,6.37-1.71,9.46ZM71.85,264.01c2.14,3.08,6.37,3.85,9.46,1.71,3.08-2.14,3.85-6.37,1.71-9.46-2.14-3.08-6.37-3.85-9.46-1.71-3.08,2.14-3.85,6.37-1.71,9.46ZM56.44,271.33c2.14,3.08,6.37,3.85,9.46,1.71,3.08-2.14,3.85-6.37,1.71-9.46-2.14-3.08-6.37-3.85-9.46-1.71-3.08,2.14-3.85,6.37-1.71,9.46ZM68.19,242.65c2.51,3.61,7.47,4.51,11.08,2.01,3.61-2.51,4.51-7.47,2.01-11.08-2.51-3.61-7.47-4.51-11.08-2.01-3.61,2.51-4.51,7.47-2.01,11.08ZM50.89,251.4c2.51,3.61,7.47,4.51,11.08,2.01,3.61-2.51,4.51-7.47,2.01-11.08s-7.47-4.51-11.08-2.01c-3.61,2.51-4.51,7.47-2.01,11.08ZM40.18,266.79c2.51,3.61,7.47,4.51,11.08,2.01,3.61-2.51,4.51-7.47,2.01-11.08s-7.47-4.51-11.08-2.01c-3.61,2.51-4.51,7.47-2.01,11.08ZM38.36,287.29c3.98,1.88,8.72.17,10.6-3.8,1.88-3.98.17-8.72-3.8-10.6-3.98-1.88-8.72-.17-10.6,3.8-1.88,3.98-.17,8.72,3.8,10.6ZM20.31,283.22c1.82,2.63,5.43,3.28,8.05,1.46,2.63-1.82,3.28-5.43,1.46-8.05-1.82-2.63-5.43-3.28-8.05-1.46-2.63,1.82-3.28,5.43-1.46,8.05ZM5.67,314.81c2.51,3.61,7.47,4.51,11.08,2.01,3.61-2.51,4.51-7.47,2.01-11.08-2.51-3.61-7.47-4.51-11.08-2.01-3.61,2.51-4.51,7.47-2.01,11.08ZM66.4,282.63c-2.03-4.28-7.15-6.1-11.43-4.07-4.28,2.03-6.1,7.15-4.07,11.43,2.03,4.28,7.15,6.1,11.43,4.07,4.28-2.03,6.1-7.15,4.07-11.43ZM147.47,186.81c3.56,2.58,8.54,1.79,11.12-1.76,2.58-3.56,1.79-8.54-1.76-11.12-3.56-2.58-8.54-1.79-11.12,1.76-2.58,3.56-1.79,8.54,1.76,11.12ZM143.59,205.7c3.56,2.58,8.54,1.79,11.12-1.76,2.58-3.56,1.79-8.54-1.76-11.12-3.56-2.58-8.54-1.79-11.12,1.76-2.58,3.56-1.79,8.54,1.76,11.12ZM98.15,212.26c-2.51-1.82-6.02-1.27-7.85,1.24-1.82,2.51-1.27,6.02,1.24,7.85,2.51,1.82,6.02,1.27,7.85-1.24,1.82-2.51,1.27-6.02-1.24-7.85ZM130.57,184.05c-2.98-1.75-6.82-.75-8.57,2.23-1.75,2.98-.75,6.82,2.23,8.57,2.98,1.75,6.82.75,8.57-2.23,1.75-2.98.75-6.82-2.23-8.57ZM295.53,132.7c1.38,4.53,6.18,7.08,10.71,5.7s7.08-6.18,5.7-10.71c-1.38-4.53-6.18-7.08-10.71-5.7-4.53,1.38-7.08,6.18-5.7,10.71ZM241.47,164.64c1.38,4.53,6.18,7.08,10.71,5.7,4.53-1.38,7.08-6.18,5.7-10.71-1.38-4.53-6.18-7.08-10.71-5.7-4.53,1.38-7.08,6.18-5.7,10.71ZM212.73,196.9c1.82,4.37,6.83,6.45,11.21,4.63,4.37-1.82,6.45-6.83,4.63-11.21-1.82-4.37-6.83-6.45-11.21-4.63-4.37,1.82-6.45,6.83-4.63,11.21ZM281.74,158.66c1.28,4.21,5.73,6.58,9.94,5.29,4.21-1.28,6.58-5.73,5.29-9.94-1.28-4.21-5.73-6.58-9.94-5.29-4.21,1.28-6.58,5.73-5.29,9.94ZM250.32,193.41c3.21,3,8.25,2.83,11.25-.39,3-3.21,2.83-8.25-.39-11.25s-8.25-2.83-11.25.39c-3,3.21-2.83,8.25.39,11.25ZM216.01,216.37c1.28,4.21,5.73,6.58,9.94,5.29,4.21-1.28,6.58-5.73,5.29-9.94-1.28-4.21-5.73-6.58-9.94-5.29-4.21,1.28-6.58,5.73-5.29,9.94ZM204.34,154.86c-1.1-3.59-4.89-5.61-8.49-4.52-3.59,1.1-5.61,4.89-4.52,8.49,1.1,3.59,4.89,5.61,8.49,4.52,3.59-1.1,5.61-4.89,4.52-8.49ZM227.99,139.27c-1.1-3.59-4.89-5.61-8.49-4.52-3.59,1.1-5.61,4.89-4.52,8.49,1.1,3.59,4.89,5.61,8.49,4.52,3.59-1.1,5.61-4.89,4.52-8.49ZM183.22,172.62c-1.1-3.59-4.89-5.61-8.49-4.52-3.59,1.1-5.61,4.89-4.52,8.49,1.1,3.59,4.89,5.61,8.49,4.52,3.59-1.1,5.61-4.89,4.52-8.49ZM277.52,173.76c-.91-2.97-4.04-4.64-7.01-3.73-2.97.91-4.64,4.04-3.73,7.01.91,2.97,4.04,4.64,7.01,3.73,2.97-.91,4.64-4.04,3.73-7.01ZM191.72,192.66c-.91-2.97-4.04-4.64-7.01-3.73-2.97.91-4.64,4.04-3.73,7.01.91,2.97,4.04,4.64,7.01,3.73,2.97-.91,4.64-4.04,3.73-7.01ZM263.53,204.04c-.91-2.97-4.04-4.64-7.01-3.73-2.97.91-4.64,4.04-3.73,7.01.91,2.97,4.04,4.64,7.01,3.73,2.97-.91,4.64-4.04,3.73-7.01ZM347.41,113.41c-.91-2.97-4.04-4.64-7.01-3.73-2.97.91-4.64,4.04-3.73,7.01.91,2.97,4.04,4.64,7.01,3.73,2.97-.91,4.64-4.04,3.73-7.01ZM372.6,98.03c-.91-2.97-4.04-4.64-7.01-3.73-2.97.91-4.64,4.04-3.73,7.01.91,2.97,4.04,4.64,7.01,3.73,2.97-.91,4.64-4.04,3.73-7.01ZM367.74,76.44c-.91-2.97-4.04-4.64-7.01-3.73-2.97.91-4.64,4.04-3.73,7.01.91,2.97,4.04,4.64,7.01,3.73,2.97-.91,4.64-4.04,3.73-7.01ZM192.96,167.88c-.64-2.09-2.84-3.26-4.93-2.62-2.09.64-3.26,2.84-2.62,4.93.64,2.09,2.84,3.26,4.93,2.62s3.26-2.84,2.62-4.93ZM241.75,129.81c-1.1-3.59-4.89-5.61-8.49-4.52-3.59,1.1-5.61,4.89-4.52,8.49,1.1,3.59,4.89,5.61,8.49,4.52,3.59-1.1,5.61-4.89,4.52-8.49ZM209.73,171.46c-1.69-4.06-6.35-5.99-10.41-4.3s-5.99,6.35-4.3,10.41c1.69,4.06,6.35,5.99,10.41,4.3,4.06-1.69,5.99-6.35,4.3-10.41ZM221.8,153.52c-1.28-4.21-5.73-6.58-9.94-5.29-4.21,1.28-6.58,5.73-5.29,9.94,1.28,4.21,5.73,6.58,9.94,5.29,4.21-1.28,6.58-5.73,5.29-9.94ZM273.03,145.04c-1.28-4.21-5.73-6.58-9.94-5.29-4.21,1.28-6.58,5.73-5.29,9.94,1.28,4.21,5.73,6.58,9.94,5.29,4.21-1.28,6.58-5.73,5.29-9.94ZM263.84,120.12c-3.21-3-8.25-2.83-11.25.39s-2.83,8.25.39,11.25c3.21,3,8.25,2.83,11.25-.39,3-3.21,2.83-8.25-.39-11.25ZM287.56,106.84c1.38,4.53,6.18,7.08,10.71,5.7,4.53-1.38,7.08-6.18,5.7-10.71-1.38-4.53-6.18-7.08-10.71-5.7-4.53,1.38-7.08,6.18-5.7,10.71ZM324.04,91.73c1.28,4.21,5.73,6.58,9.94,5.29,4.21-1.28,6.58-5.73,5.29-9.94-1.28-4.21-5.73-6.58-9.94-5.29-4.21,1.28-6.58,5.73-5.29,9.94ZM311.88,112.09c1.28,4.21,5.73,6.58,9.94,5.29,4.21-1.28,6.58-5.73,5.29-9.94-1.28-4.21-5.73-6.58-9.94-5.29-4.21,1.28-6.58,5.73-5.29,9.94ZM330.85,133.58c-1.1-3.59-4.89-5.61-8.49-4.52-3.59,1.1-5.61,4.89-4.52,8.49,1.1,3.59,4.89,5.61,8.49,4.52,3.59-1.1,5.61-4.89,4.52-8.49ZM406.06,158.49c-.91-2.97-4.04-4.64-7.01-3.73-2.97.91-4.64,4.04-3.73,7.01.91,2.97,4.04,4.64,7.01,3.73,2.97-.91,4.64-4.04,3.73-7.01ZM474.59,125.78c-.91-2.97-4.04-4.64-7.01-3.73-2.97.91-4.64,4.04-3.73,7.01.91,2.97,4.04,4.64,7.01,3.73,2.97-.91,4.64-4.04,3.73-7.01ZM419.56,155.21c-.91-2.97-4.04-4.64-7.01-3.73-2.97.91-4.64,4.04-3.73,7.01.91,2.97,4.04,4.64,7.01,3.73,2.97-.91,4.64-4.04,3.73-7.01ZM442.81,145.94c-.91-2.97-4.04-4.64-7.01-3.73-2.97.91-4.64,4.04-3.73,7.01.91,2.97,4.04,4.64,7.01,3.73,2.97-.91,4.64-4.04,3.73-7.01ZM449.17,81.92c1.66-2.62.88-6.09-1.73-7.75-2.62-1.66-6.09-.88-7.75,1.73-1.66,2.62-.88,6.09,1.73,7.75,2.62,1.66,6.09.88,7.75-1.73ZM489.52,19.83c1.66-2.62.88-6.09-1.73-7.75-2.62-1.66-6.09-.88-7.75,1.73-1.66,2.62-.88,6.09,1.73,7.75,2.62,1.66,6.09.88,7.75-1.73ZM276.46,110.6c-.91-2.97-4.04-4.64-7.01-3.73-2.97.91-4.64,4.04-3.73,7.01.91,2.97,4.04,4.64,7.01,3.73,2.97-.91,4.64-4.04,3.73-7.01ZM385.68,65.61c-.64-2.09-2.84-3.26-4.93-2.62-2.09.64-3.26,2.84-2.62,4.93.64,2.09,2.84,3.26,4.93,2.62,2.09-.64,3.26-2.84,2.62-4.93ZM409.08,68.69c-.64-2.09-2.84-3.26-4.93-2.62-2.09.64-3.26,2.84-2.62,4.93.64,2.09,2.84,3.26,4.93,2.62,2.09-.64,3.26-2.84,2.62-4.93ZM396.56,109.76c-.64-2.09-2.84-3.26-4.93-2.62-2.09.64-3.26,2.84-2.62,4.93.64,2.09,2.84,3.26,4.93,2.62,2.09-.64,3.26-2.84,2.62-4.93ZM463.03,59.29c-.64-2.09-2.84-3.26-4.93-2.62-2.09.64-3.26,2.84-2.62,4.93.64,2.09,2.84,3.26,4.93,2.62,2.09-.64,3.26-2.84,2.62-4.93ZM357.1,91.08c-.64-2.09-2.84-3.26-4.93-2.62-2.09.64-3.26,2.84-2.62,4.93.64,2.09,2.84,3.26,4.93,2.62,2.09-.64,3.26-2.84,2.62-4.93ZM482.62,50.43c-1.1-3.59-4.89-5.61-8.49-4.52-3.59,1.1-5.61,4.89-4.52,8.49,1.1,3.59,4.89,5.61,8.49,4.52,3.59-1.1,5.61-4.89,4.52-8.49ZM462.51,74.69c-.64-2.09-2.84-3.26-4.93-2.62-2.09.64-3.26,2.84-2.62,4.93s2.84,3.26,4.93,2.62c2.09-.64,3.26-2.84,2.62-4.93ZM470.04,112.45c1.38,4.53,6.18,7.08,10.71,5.7,4.53-1.38,7.08-6.18,5.7-10.71-1.38-4.53-6.18-7.08-10.71-5.7-4.53,1.38-7.08,6.18-5.7,10.71ZM452.64,105.35c-1.28-4.21-5.73-6.58-9.94-5.29-4.21,1.28-6.58,5.73-5.29,9.94,1.28,4.21,5.73,6.58,9.94,5.29,4.21-1.28,6.58-5.73,5.29-9.94ZM498.36,82.77c.74-2.05-.33-4.31-2.38-5.05-2.05-.74-4.31.33-5.05,2.38-.74,2.05.33,4.31,2.38,5.05,2.05.74,4.31-.33,5.05-2.38Z"/></g></svg>